# MagicaVoxel @ Ephtracy

# group
o 

# material
mtllib Construction.mtl
usemtl palette

# normals
vn -1 0 0
vn 1 0 0
vn 0 0 1
vn 0 0 -1
vn 0 -1 0
vn 0 1 0

# texcoords
vt 0.263672 0.5
vt 0.427734 0.5
vt 0.994141 0.5

# verts
v 0.1 2.4 -1.9
v 0.1 2.4 -2
v 0.1 2.5 -1.9
v 0.1 2.5 -2
v 0.1 2.6 -1.9
v 0.1 2.6 -2
v 1.7 2 -1.7
v 1.7 2 -1.9
v 1.7 2.4 -1.9
v 1.7 2.5 -1.9
v 1.7 2.6 -1.9
v 1.7 3 -1.7
v 1.7 3 -1.9
v 1.9 2 -1.7
v 1.9 2 -1.9
v 1.9 2.4 -1.9
v 1.9 2.4 -2
v 1.9 2.5 -1.9
v 1.9 2.5 -2
v 1.9 2.6 -1.9
v 1.9 2.6 -2
v 1.9 3 -1.7
v 1.9 3 -1.9
v 1.7 2 -1.7
v 1.7 3 -1.7
v 1.9 2 -1.7
v 1.9 3 -1.7
v 0.1 2.4 -1.9
v 0.1 2.5 -1.9
v 0.1 2.6 -1.9
v 0.2 2.4 -1.9
v 0.2 2.5 -1.9
v 0.2 2.6 -1.9
v 0.3 2.4 -1.9
v 0.3 2.5 -1.9
v 0.3 2.6 -1.9
v 0.4 2.4 -1.9
v 0.4 2.5 -1.9
v 0.4 2.6 -1.9
v 0.5 2.4 -1.9
v 0.5 2.5 -1.9
v 0.5 2.6 -1.9
v 0.6 2.4 -1.9
v 0.6 2.5 -1.9
v 0.6 2.6 -1.9
v 0.7 2.4 -1.9
v 0.7 2.5 -1.9
v 0.7 2.6 -1.9
v 0.8 2.4 -1.9
v 0.8 2.5 -1.9
v 0.8 2.6 -1.9
v 0.9 2.4 -1.9
v 0.9 2.5 -1.9
v 0.9 2.6 -1.9
v 1 2.4 -1.9
v 1 2.5 -1.9
v 1 2.6 -1.9
v 1.1 2.4 -1.9
v 1.1 2.5 -1.9
v 1.1 2.6 -1.9
v 1.2 2.4 -1.9
v 1.2 2.5 -1.9
v 1.2 2.6 -1.9
v 1.3 2.4 -1.9
v 1.3 2.5 -1.9
v 1.3 2.6 -1.9
v 1.4 2.4 -1.9
v 1.4 2.5 -1.9
v 1.4 2.6 -1.9
v 1.5 2.4 -1.9
v 1.5 2.5 -1.9
v 1.5 2.6 -1.9
v 1.6 2.4 -1.9
v 1.6 2.5 -1.9
v 1.6 2.6 -1.9
v 1.7 2.4 -1.9
v 1.7 2.5 -1.9
v 1.7 2.6 -1.9
v 1.7 2 -1.9
v 1.7 2.4 -1.9
v 1.7 2.6 -1.9
v 1.7 3 -1.9
v 1.8 2.4 -1.9
v 1.8 2.6 -1.9
v 1.9 2 -1.9
v 1.9 2.4 -1.9
v 1.9 2.6 -1.9
v 1.9 3 -1.9
v 0.1 2.4 -2
v 0.1 2.5 -2
v 0.1 2.6 -2
v 0.2 2.4 -2
v 0.2 2.5 -2
v 0.2 2.6 -2
v 0.3 2.4 -2
v 0.3 2.5 -2
v 0.3 2.6 -2
v 0.4 2.4 -2
v 0.4 2.5 -2
v 0.4 2.6 -2
v 0.5 2.4 -2
v 0.5 2.5 -2
v 0.5 2.6 -2
v 0.6 2.4 -2
v 0.6 2.5 -2
v 0.6 2.6 -2
v 0.7 2.4 -2
v 0.7 2.5 -2
v 0.7 2.6 -2
v 0.8 2.4 -2
v 0.8 2.5 -2
v 0.8 2.6 -2
v 0.9 2.4 -2
v 0.9 2.5 -2
v 0.9 2.6 -2
v 1 2.4 -2
v 1 2.5 -2
v 1 2.6 -2
v 1.1 2.4 -2
v 1.1 2.5 -2
v 1.1 2.6 -2
v 1.2 2.4 -2
v 1.2 2.5 -2
v 1.2 2.6 -2
v 1.3 2.4 -2
v 1.3 2.5 -2
v 1.3 2.6 -2
v 1.4 2.4 -2
v 1.4 2.5 -2
v 1.4 2.6 -2
v 1.5 2.4 -2
v 1.5 2.5 -2
v 1.5 2.6 -2
v 1.6 2.4 -2
v 1.6 2.5 -2
v 1.6 2.6 -2
v 1.7 2.4 -2
v 1.7 2.5 -2
v 1.7 2.6 -2
v 1.8 2.4 -2
v 1.8 2.5 -2
v 1.8 2.6 -2
v 1.9 2.4 -2
v 1.9 2.5 -2
v 1.9 2.6 -2
v 1.7 2 -1.7
v 1.9 2 -1.7
v 1.7 2 -1.9
v 1.9 2 -1.9
v 0.1 2.4 -1.9
v 0.2 2.4 -1.9
v 0.3 2.4 -1.9
v 0.4 2.4 -1.9
v 0.5 2.4 -1.9
v 0.6 2.4 -1.9
v 0.7 2.4 -1.9
v 0.8 2.4 -1.9
v 0.9 2.4 -1.9
v 1 2.4 -1.9
v 1.1 2.4 -1.9
v 1.2 2.4 -1.9
v 1.3 2.4 -1.9
v 1.4 2.4 -1.9
v 1.5 2.4 -1.9
v 1.6 2.4 -1.9
v 1.7 2.4 -1.9
v 1.8 2.4 -1.9
v 1.9 2.4 -1.9
v 0.1 2.4 -2
v 0.2 2.4 -2
v 0.3 2.4 -2
v 0.4 2.4 -2
v 0.5 2.4 -2
v 0.6 2.4 -2
v 0.7 2.4 -2
v 0.8 2.4 -2
v 0.9 2.4 -2
v 1 2.4 -2
v 1.1 2.4 -2
v 1.2 2.4 -2
v 1.3 2.4 -2
v 1.4 2.4 -2
v 1.5 2.4 -2
v 1.6 2.4 -2
v 1.7 2.4 -2
v 1.8 2.4 -2
v 1.9 2.4 -2
v 0.1 2.6 -1.9
v 0.2 2.6 -1.9
v 0.3 2.6 -1.9
v 0.4 2.6 -1.9
v 0.5 2.6 -1.9
v 0.6 2.6 -1.9
v 0.7 2.6 -1.9
v 0.8 2.6 -1.9
v 0.9 2.6 -1.9
v 1 2.6 -1.9
v 1.1 2.6 -1.9
v 1.2 2.6 -1.9
v 1.3 2.6 -1.9
v 1.4 2.6 -1.9
v 1.5 2.6 -1.9
v 1.6 2.6 -1.9
v 1.7 2.6 -1.9
v 1.8 2.6 -1.9
v 1.9 2.6 -1.9
v 0.1 2.6 -2
v 0.2 2.6 -2
v 0.3 2.6 -2
v 0.4 2.6 -2
v 0.5 2.6 -2
v 0.6 2.6 -2
v 0.7 2.6 -2
v 0.8 2.6 -2
v 0.9 2.6 -2
v 1 2.6 -2
v 1.1 2.6 -2
v 1.2 2.6 -2
v 1.3 2.6 -2
v 1.4 2.6 -2
v 1.5 2.6 -2
v 1.6 2.6 -2
v 1.7 2.6 -2
v 1.8 2.6 -2
v 1.9 2.6 -2
v 1.7 3 -1.7
v 1.9 3 -1.7
v 1.7 3 -1.9
v 1.9 3 -1.9

# faces
f 3/3/1 2/3/1 1/3/1
f 4/3/1 2/3/1 3/3/1
f 5/2/1 4/2/1 3/2/1
f 6/2/1 4/2/1 5/2/1
f 9/1/1 8/1/1 7/1/1
f 10/1/1 9/1/1 7/1/1
f 11/1/1 10/1/1 7/1/1
f 12/1/1 11/1/1 7/1/1
f 13/1/1 11/1/1 12/1/1
f 14/1/2 15/1/2 16/1/2
f 14/1/2 16/1/2 18/1/2
f 16/2/2 17/2/2 18/2/2
f 18/2/2 17/2/2 19/2/2
f 14/1/2 18/1/2 20/1/2
f 18/3/2 19/3/2 20/3/2
f 20/3/2 19/3/2 21/3/2
f 14/1/2 20/1/2 22/1/2
f 22/1/2 20/1/2 23/1/2
f 26/1/3 25/1/3 24/1/3
f 27/1/3 25/1/3 26/1/3
f 31/3/3 29/3/3 28/3/3
f 32/2/3 30/2/3 29/2/3
f 32/3/3 29/3/3 31/3/3
f 33/2/3 30/2/3 32/2/3
f 34/2/3 32/2/3 31/2/3
f 35/3/3 33/3/3 32/3/3
f 35/2/3 32/2/3 34/2/3
f 36/3/3 33/3/3 35/3/3
f 37/3/3 35/3/3 34/3/3
f 38/2/3 36/2/3 35/2/3
f 38/3/3 35/3/3 37/3/3
f 39/2/3 36/2/3 38/2/3
f 40/2/3 38/2/3 37/2/3
f 41/3/3 39/3/3 38/3/3
f 41/2/3 38/2/3 40/2/3
f 42/3/3 39/3/3 41/3/3
f 43/3/3 41/3/3 40/3/3
f 44/2/3 42/2/3 41/2/3
f 44/3/3 41/3/3 43/3/3
f 45/2/3 42/2/3 44/2/3
f 46/2/3 44/2/3 43/2/3
f 47/3/3 45/3/3 44/3/3
f 47/2/3 44/2/3 46/2/3
f 48/3/3 45/3/3 47/3/3
f 49/3/3 47/3/3 46/3/3
f 50/2/3 48/2/3 47/2/3
f 50/3/3 47/3/3 49/3/3
f 51/2/3 48/2/3 50/2/3
f 52/2/3 50/2/3 49/2/3
f 53/3/3 51/3/3 50/3/3
f 53/2/3 50/2/3 52/2/3
f 54/3/3 51/3/3 53/3/3
f 55/3/3 53/3/3 52/3/3
f 56/2/3 54/2/3 53/2/3
f 56/3/3 53/3/3 55/3/3
f 57/2/3 54/2/3 56/2/3
f 58/2/3 56/2/3 55/2/3
f 59/3/3 57/3/3 56/3/3
f 59/2/3 56/2/3 58/2/3
f 60/3/3 57/3/3 59/3/3
f 61/3/3 59/3/3 58/3/3
f 62/2/3 60/2/3 59/2/3
f 62/3/3 59/3/3 61/3/3
f 63/2/3 60/2/3 62/2/3
f 64/2/3 62/2/3 61/2/3
f 65/3/3 63/3/3 62/3/3
f 65/2/3 62/2/3 64/2/3
f 66/3/3 63/3/3 65/3/3
f 67/3/3 65/3/3 64/3/3
f 68/2/3 66/2/3 65/2/3
f 68/3/3 65/3/3 67/3/3
f 69/2/3 66/2/3 68/2/3
f 70/2/3 68/2/3 67/2/3
f 71/3/3 69/3/3 68/3/3
f 71/2/3 68/2/3 70/2/3
f 72/3/3 69/3/3 71/3/3
f 73/3/3 71/3/3 70/3/3
f 74/2/3 72/2/3 71/2/3
f 74/3/3 71/3/3 73/3/3
f 75/2/3 72/2/3 74/2/3
f 76/2/3 74/2/3 73/2/3
f 77/3/3 75/3/3 74/3/3
f 77/2/3 74/2/3 76/2/3
f 78/3/3 75/3/3 77/3/3
f 79/1/4 80/1/4 83/1/4
f 81/1/4 82/1/4 84/1/4
f 79/1/4 83/1/4 85/1/4
f 85/1/4 83/1/4 86/1/4
f 84/1/4 82/1/4 87/1/4
f 87/1/4 82/1/4 88/1/4
f 89/3/4 90/3/4 92/3/4
f 90/2/4 91/2/4 93/2/4
f 92/3/4 90/3/4 93/3/4
f 93/2/4 91/2/4 94/2/4
f 92/2/4 93/2/4 95/2/4
f 93/3/4 94/3/4 96/3/4
f 95/2/4 93/2/4 96/2/4
f 96/3/4 94/3/4 97/3/4
f 95/3/4 96/3/4 98/3/4
f 96/2/4 97/2/4 99/2/4
f 98/3/4 96/3/4 99/3/4
f 99/2/4 97/2/4 100/2/4
f 98/2/4 99/2/4 101/2/4
f 99/3/4 100/3/4 102/3/4
f 101/2/4 99/2/4 102/2/4
f 102/3/4 100/3/4 103/3/4
f 101/3/4 102/3/4 104/3/4
f 102/2/4 103/2/4 105/2/4
f 104/3/4 102/3/4 105/3/4
f 105/2/4 103/2/4 106/2/4
f 104/2/4 105/2/4 107/2/4
f 105/3/4 106/3/4 108/3/4
f 107/2/4 105/2/4 108/2/4
f 108/3/4 106/3/4 109/3/4
f 107/3/4 108/3/4 110/3/4
f 108/2/4 109/2/4 111/2/4
f 110/3/4 108/3/4 111/3/4
f 111/2/4 109/2/4 112/2/4
f 110/2/4 111/2/4 113/2/4
f 111/3/4 112/3/4 114/3/4
f 113/2/4 111/2/4 114/2/4
f 114/3/4 112/3/4 115/3/4
f 113/3/4 114/3/4 116/3/4
f 114/2/4 115/2/4 117/2/4
f 116/3/4 114/3/4 117/3/4
f 117/2/4 115/2/4 118/2/4
f 116/2/4 117/2/4 119/2/4
f 117/3/4 118/3/4 120/3/4
f 119/2/4 117/2/4 120/2/4
f 120/3/4 118/3/4 121/3/4
f 119/3/4 120/3/4 122/3/4
f 120/2/4 121/2/4 123/2/4
f 122/3/4 120/3/4 123/3/4
f 123/2/4 121/2/4 124/2/4
f 122/2/4 123/2/4 125/2/4
f 123/3/4 124/3/4 126/3/4
f 125/2/4 123/2/4 126/2/4
f 126/3/4 124/3/4 127/3/4
f 125/3/4 126/3/4 128/3/4
f 126/2/4 127/2/4 129/2/4
f 128/3/4 126/3/4 129/3/4
f 129/2/4 127/2/4 130/2/4
f 128/2/4 129/2/4 131/2/4
f 129/3/4 130/3/4 132/3/4
f 131/2/4 129/2/4 132/2/4
f 132/3/4 130/3/4 133/3/4
f 131/3/4 132/3/4 134/3/4
f 132/2/4 133/2/4 135/2/4
f 134/3/4 132/3/4 135/3/4
f 135/2/4 133/2/4 136/2/4
f 134/2/4 135/2/4 137/2/4
f 135/3/4 136/3/4 138/3/4
f 137/2/4 135/2/4 138/2/4
f 138/3/4 136/3/4 139/3/4
f 137/3/4 138/3/4 140/3/4
f 138/2/4 139/2/4 141/2/4
f 140/3/4 138/3/4 141/3/4
f 141/2/4 139/2/4 142/2/4
f 140/2/4 141/2/4 143/2/4
f 141/3/4 142/3/4 144/3/4
f 143/2/4 141/2/4 144/2/4
f 144/3/4 142/3/4 145/3/4
f 148/1/5 147/1/5 146/1/5
f 149/1/5 147/1/5 148/1/5
f 169/3/5 151/3/5 150/3/5
f 170/2/5 152/2/5 151/2/5
f 170/3/5 151/3/5 169/3/5
f 171/3/5 153/3/5 152/3/5
f 171/2/5 152/2/5 170/2/5
f 172/2/5 154/2/5 153/2/5
f 172/3/5 153/3/5 171/3/5
f 173/3/5 155/3/5 154/3/5
f 173/2/5 154/2/5 172/2/5
f 174/2/5 156/2/5 155/2/5
f 174/3/5 155/3/5 173/3/5
f 175/3/5 157/3/5 156/3/5
f 175/2/5 156/2/5 174/2/5
f 176/2/5 158/2/5 157/2/5
f 176/3/5 157/3/5 175/3/5
f 177/3/5 159/3/5 158/3/5
f 177/2/5 158/2/5 176/2/5
f 178/2/5 160/2/5 159/2/5
f 178/3/5 159/3/5 177/3/5
f 179/3/5 161/3/5 160/3/5
f 179/2/5 160/2/5 178/2/5
f 180/2/5 162/2/5 161/2/5
f 180/3/5 161/3/5 179/3/5
f 181/3/5 163/3/5 162/3/5
f 181/2/5 162/2/5 180/2/5
f 182/2/5 164/2/5 163/2/5
f 182/3/5 163/3/5 181/3/5
f 183/3/5 165/3/5 164/3/5
f 183/2/5 164/2/5 182/2/5
f 184/2/5 166/2/5 165/2/5
f 184/3/5 165/3/5 183/3/5
f 185/3/5 167/3/5 166/3/5
f 185/2/5 166/2/5 184/2/5
f 186/2/5 168/2/5 167/2/5
f 186/3/5 167/3/5 185/3/5
f 187/2/5 168/2/5 186/2/5
f 188/2/6 189/2/6 207/2/6
f 189/3/6 190/3/6 208/3/6
f 207/2/6 189/2/6 208/2/6
f 190/2/6 191/2/6 209/2/6
f 208/3/6 190/3/6 209/3/6
f 191/3/6 192/3/6 210/3/6
f 209/2/6 191/2/6 210/2/6
f 192/2/6 193/2/6 211/2/6
f 210/3/6 192/3/6 211/3/6
f 193/3/6 194/3/6 212/3/6
f 211/2/6 193/2/6 212/2/6
f 194/2/6 195/2/6 213/2/6
f 212/3/6 194/3/6 213/3/6
f 195/3/6 196/3/6 214/3/6
f 213/2/6 195/2/6 214/2/6
f 196/2/6 197/2/6 215/2/6
f 214/3/6 196/3/6 215/3/6
f 197/3/6 198/3/6 216/3/6
f 215/2/6 197/2/6 216/2/6
f 198/2/6 199/2/6 217/2/6
f 216/3/6 198/3/6 217/3/6
f 199/3/6 200/3/6 218/3/6
f 217/2/6 199/2/6 218/2/6
f 200/2/6 201/2/6 219/2/6
f 218/3/6 200/3/6 219/3/6
f 201/3/6 202/3/6 220/3/6
f 219/2/6 201/2/6 220/2/6
f 202/2/6 203/2/6 221/2/6
f 220/3/6 202/3/6 221/3/6
f 203/3/6 204/3/6 222/3/6
f 221/2/6 203/2/6 222/2/6
f 204/2/6 205/2/6 223/2/6
f 222/3/6 204/3/6 223/3/6
f 205/3/6 206/3/6 224/3/6
f 223/2/6 205/2/6 224/2/6
f 224/3/6 206/3/6 225/3/6
f 226/1/6 227/1/6 228/1/6
f 228/1/6 227/1/6 229/1/6
