# MagicaVoxel @ Ephtracy

# group
o 

# material
mtllib Tree1.mtl
usemtl palette

# normals
vn -1 0 0
vn 1 0 0
vn 0 0 1
vn 0 0 -1
vn 0 -1 0
vn 0 1 0

# texcoords
vt 0.876953 0.5
vt 0.955078 0.5
vt 0.958984 0.5

# verts
v 0 4.4 -1.3
v 0 4.4 -1.8
v 0 4.8 -1.3
v 0 4.8 -1.8
v 0 5 -0.6
v 0 5 -1.3
v 0 5.7 -0.6
v 0 5.7 -1.3
v 0.1 4 -0.5
v 0.1 4 -1.6
v 0.1 4.3 -1.6
v 0.1 4.3 -1.9
v 0.1 4.4 -1.3
v 0.1 4.4 -1.8
v 0.1 4.5 -0.1
v 0.1 4.5 -0.5
v 0.1 4.8 -1.3
v 0.1 4.8 -1.8
v 0.1 5 -0.6
v 0.1 5 -1.3
v 0.1 5.3 -1.4
v 0.1 5.3 -1.9
v 0.1 5.6 -0.1
v 0.1 5.6 -0.5
v 0.1 5.7 -0.6
v 0.1 5.7 -1.3
v 0.1 5.8 -0.5
v 0.1 5.8 -1.4
v 0.3 4 -1.6
v 0.3 4 -1.9
v 0.3 4.3 -1.6
v 0.3 4.3 -1.9
v 0.4 3.9 -0.6
v 0.4 3.9 -1.5
v 0.4 4 -0.6
v 0.4 4 -1.5
v 0.4 5.3 -1.4
v 0.4 5.3 -1.6
v 0.4 5.5 -1.4
v 0.4 5.5 -1.6
v 0.6 3.9 -1.5
v 0.6 3.9 -1.6
v 0.6 4 -1.5
v 0.6 4 -1.6
v 0.6 5.3 -1.6
v 0.6 5.3 -1.9
v 0.6 5.5 -1.4
v 0.6 5.5 -1.6
v 0.6 5.6 -0.1
v 0.6 5.6 -0.5
v 0.6 5.8 -0.1
v 0.6 5.8 -0.5
v 0.6 5.8 -1.4
v 0.6 5.8 -1.9
v 0.7 4.3 -0.3
v 0.7 4.3 -0.5
v 0.7 4.5 -0.3
v 0.7 4.5 -0.5
v 0.8 2 -0.9
v 0.8 2 -1.1
v 0.8 3.9 -0.9
v 0.8 3.9 -1.1
v 0.9 2 -0.8
v 0.9 2 -0.9
v 0.9 2 -1.1
v 0.9 2 -1.2
v 0.9 3.9 -0.8
v 0.9 3.9 -0.9
v 0.9 3.9 -1.1
v 0.9 3.9 -1.2
v 0.9 4 0
v 0.9 4 -0.5
v 0.9 4.3 -0.3
v 0.9 4.3 -0.5
v 0.9 4.5 -0.1
v 0.9 4.5 -0.3
v 0.9 5 0
v 0.9 5 -0.1
v 1 3.9 -0.3
v 1 3.9 -0.6
v 1 4 -0.3
v 1 4 -0.6
v 1.1 2 -0.8
v 1.1 2 -0.9
v 1.1 2 -1.1
v 1.1 2 -1.2
v 1.1 3.9 -0.8
v 1.1 3.9 -0.9
v 1.1 3.9 -1.1
v 1.1 3.9 -1.2
v 1.1 3.9 -1.5
v 1.1 3.9 -1.6
v 1.1 4 -1.5
v 1.1 4 -1.6
v 1.2 2 -0.9
v 1.2 2 -1.1
v 1.2 3.9 -0.9
v 1.2 3.9 -1.1
v 1.2 5.4 -0.1
v 1.2 5.4 -0.5
v 1.2 5.6 -0.5
v 1.2 5.6 -0.7
v 1.2 5.8 -0.1
v 1.2 5.8 -0.7
v 1.3 4 -1.7
v 1.3 4 -1.9
v 1.3 4.4 -1.7
v 1.3 4.4 -1.8
v 1.3 4.6 -1.8
v 1.3 4.6 -1.9
v 1.4 3.9 -0.3
v 1.4 3.9 -0.6
v 1.4 4 -0.3
v 1.4 4 -0.6
v 1.4 5.4 -0.5
v 1.4 5.4 -0.7
v 1.4 5.6 -0.5
v 1.4 5.6 -0.7
v 1.5 4.4 -1.7
v 1.5 4.4 -1.8
v 1.5 4.6 -1.7
v 1.5 4.6 -1.8
v 1.6 3.9 -0.6
v 1.6 3.9 -1.5
v 1.6 4 -0.6
v 1.6 4 -1.5
v 1.6 5.4 -1.6
v 1.6 5.4 -1.9
v 1.6 5.8 -1.6
v 1.6 5.8 -1.9
v 1.7 4 0
v 1.7 4 -0.5
v 1.7 4.4 -0.1
v 1.7 4.4 -0.5
v 1.7 5 0
v 1.7 5 -0.1
v 1.9 4 -0.5
v 1.9 4 -1.7
v 1.9 4.3 -0.6
v 1.9 4.3 -1.5
v 1.9 4.4 -0.1
v 1.9 4.4 -0.5
v 1.9 4.6 -1.7
v 1.9 4.6 -1.9
v 1.9 5 -0.6
v 1.9 5 -1.5
v 1.9 5.4 -0.1
v 1.9 5.4 -0.7
v 1.9 5.4 -1.6
v 1.9 5.4 -1.9
v 1.9 5.8 -0.7
v 1.9 5.8 -1.6
v 2 4.3 -0.6
v 2 4.3 -1.5
v 2 5 -0.6
v 2 5 -1.5
v 0.9 4 0
v 0.9 5 0
v 1.7 4 0
v 1.7 5 0
v 0.1 4.5 -0.1
v 0.1 5.6 -0.1
v 0.6 5.6 -0.1
v 0.6 5.8 -0.1
v 0.9 4.5 -0.1
v 0.9 5 -0.1
v 1.2 5.4 -0.1
v 1.2 5.8 -0.1
v 1.7 4.4 -0.1
v 1.7 5 -0.1
v 1.9 4.4 -0.1
v 1.9 5.4 -0.1
v 0.7 4.3 -0.3
v 0.7 4.5 -0.3
v 0.9 4.3 -0.3
v 0.9 4.5 -0.3
v 1 3.9 -0.3
v 1 4 -0.3
v 1.4 3.9 -0.3
v 1.4 4 -0.3
v 0.1 4 -0.5
v 0.1 4.5 -0.5
v 0.1 5.6 -0.5
v 0.1 5.8 -0.5
v 0.6 5.6 -0.5
v 0.6 5.8 -0.5
v 0.7 4.3 -0.5
v 0.7 4.5 -0.5
v 0.9 4 -0.5
v 0.9 4.3 -0.5
v 1.2 5.4 -0.5
v 1.2 5.6 -0.5
v 1.4 5.4 -0.5
v 1.4 5.6 -0.5
v 1.7 4 -0.5
v 1.7 4.4 -0.5
v 1.9 4 -0.5
v 1.9 4.4 -0.5
v 0 5 -0.6
v 0 5.7 -0.6
v 0.1 5 -0.6
v 0.1 5.7 -0.6
v 0.4 3.9 -0.6
v 0.4 4 -0.6
v 1 3.9 -0.6
v 1 4 -0.6
v 1.4 3.9 -0.6
v 1.4 4 -0.6
v 1.6 3.9 -0.6
v 1.6 4 -0.6
v 1.9 4.3 -0.6
v 1.9 5 -0.6
v 2 4.3 -0.6
v 2 5 -0.6
v 1.2 5.6 -0.7
v 1.2 5.8 -0.7
v 1.4 5.4 -0.7
v 1.4 5.6 -0.7
v 1.9 5.4 -0.7
v 1.9 5.8 -0.7
v 0.9 2 -0.8
v 0.9 3.9 -0.8
v 1.1 2 -0.8
v 1.1 3.9 -0.8
v 0.8 2 -0.9
v 0.8 3.9 -0.9
v 0.9 2 -0.9
v 0.9 3.9 -0.9
v 1.1 2 -0.9
v 1.1 3.9 -0.9
v 1.2 2 -0.9
v 1.2 3.9 -0.9
v 0 4.4 -1.3
v 0 4.8 -1.3
v 0.1 4.4 -1.3
v 0.1 4.8 -1.3
v 0.8 2 -1.1
v 0.8 3.9 -1.1
v 0.9 2 -1.1
v 0.9 3.9 -1.1
v 1.1 2 -1.1
v 1.1 3.9 -1.1
v 1.2 2 -1.1
v 1.2 3.9 -1.1
v 0.9 2 -1.2
v 0.9 3.9 -1.2
v 1.1 2 -1.2
v 1.1 3.9 -1.2
v 0 5 -1.3
v 0 5.7 -1.3
v 0.1 5 -1.3
v 0.1 5.7 -1.3
v 0.1 5.3 -1.4
v 0.1 5.8 -1.4
v 0.4 5.3 -1.4
v 0.4 5.5 -1.4
v 0.6 5.5 -1.4
v 0.6 5.8 -1.4
v 0.4 3.9 -1.5
v 0.4 4 -1.5
v 0.6 3.9 -1.5
v 0.6 4 -1.5
v 1.1 3.9 -1.5
v 1.1 4 -1.5
v 1.6 3.9 -1.5
v 1.6 4 -1.5
v 1.9 4.3 -1.5
v 1.9 5 -1.5
v 2 4.3 -1.5
v 2 5 -1.5
v 0.1 4 -1.6
v 0.1 4.3 -1.6
v 0.3 4 -1.6
v 0.3 4.3 -1.6
v 0.4 5.3 -1.6
v 0.4 5.5 -1.6
v 0.6 3.9 -1.6
v 0.6 4 -1.6
v 0.6 5.3 -1.6
v 0.6 5.5 -1.6
v 1.1 3.9 -1.6
v 1.1 4 -1.6
v 1.6 5.4 -1.6
v 1.6 5.8 -1.6
v 1.9 5.4 -1.6
v 1.9 5.8 -1.6
v 1.3 4 -1.7
v 1.3 4.4 -1.7
v 1.5 4.4 -1.7
v 1.5 4.6 -1.7
v 1.9 4 -1.7
v 1.9 4.6 -1.7
v 0 4.4 -1.8
v 0 4.8 -1.8
v 0.1 4.4 -1.8
v 0.1 4.8 -1.8
v 1.3 4.4 -1.8
v 1.3 4.6 -1.8
v 1.5 4.4 -1.8
v 1.5 4.6 -1.8
v 0.1 4.3 -1.9
v 0.1 5.3 -1.9
v 0.3 4 -1.9
v 0.3 4.3 -1.9
v 0.6 5.3 -1.9
v 0.6 5.8 -1.9
v 1.3 4 -1.9
v 1.3 4.6 -1.9
v 1.6 5.4 -1.9
v 1.6 5.8 -1.9
v 1.9 4.6 -1.9
v 1.9 5.4 -1.9
v 0.9 2 -0.8
v 1.1 2 -0.8
v 0.8 2 -0.9
v 0.9 2 -0.9
v 1.1 2 -0.9
v 1.2 2 -0.9
v 0.8 2 -1.1
v 0.9 2 -1.1
v 1.1 2 -1.1
v 1.2 2 -1.1
v 0.9 2 -1.2
v 1.1 2 -1.2
v 1 3.9 -0.3
v 1.4 3.9 -0.3
v 0.4 3.9 -0.6
v 1 3.9 -0.6
v 1.4 3.9 -0.6
v 1.6 3.9 -0.6
v 0.9 3.9 -0.8
v 1.1 3.9 -0.8
v 0.8 3.9 -0.9
v 0.9 3.9 -0.9
v 1.1 3.9 -0.9
v 1.2 3.9 -0.9
v 0.8 3.9 -1.1
v 0.9 3.9 -1.1
v 1.1 3.9 -1.1
v 1.2 3.9 -1.1
v 0.9 3.9 -1.2
v 1.1 3.9 -1.2
v 0.4 3.9 -1.5
v 0.6 3.9 -1.5
v 1.1 3.9 -1.5
v 1.6 3.9 -1.5
v 0.6 3.9 -1.6
v 1.1 3.9 -1.6
v 0.9 4 0
v 1.7 4 0
v 1 4 -0.3
v 1.4 4 -0.3
v 0.1 4 -0.5
v 0.9 4 -0.5
v 1.7 4 -0.5
v 1.9 4 -0.5
v 0.4 4 -0.6
v 1 4 -0.6
v 1.4 4 -0.6
v 1.6 4 -0.6
v 0.4 4 -1.5
v 0.6 4 -1.5
v 1.1 4 -1.5
v 1.6 4 -1.5
v 0.1 4 -1.6
v 0.3 4 -1.6
v 0.6 4 -1.6
v 1.1 4 -1.6
v 1.3 4 -1.7
v 1.9 4 -1.7
v 0.3 4 -1.9
v 1.3 4 -1.9
v 0.7 4.3 -0.3
v 0.9 4.3 -0.3
v 0.7 4.3 -0.5
v 0.9 4.3 -0.5
v 1.9 4.3 -0.6
v 2 4.3 -0.6
v 1.9 4.3 -1.5
v 2 4.3 -1.5
v 0.1 4.3 -1.6
v 0.3 4.3 -1.6
v 0.1 4.3 -1.9
v 0.3 4.3 -1.9
v 1.7 4.4 -0.1
v 1.9 4.4 -0.1
v 1.7 4.4 -0.5
v 1.9 4.4 -0.5
v 0 4.4 -1.3
v 0.1 4.4 -1.3
v 1.3 4.4 -1.7
v 1.5 4.4 -1.7
v 0 4.4 -1.8
v 0.1 4.4 -1.8
v 1.3 4.4 -1.8
v 1.5 4.4 -1.8
v 0.1 4.5 -0.1
v 0.9 4.5 -0.1
v 0.7 4.5 -0.3
v 0.9 4.5 -0.3
v 0.1 4.5 -0.5
v 0.7 4.5 -0.5
v 1.5 4.6 -1.7
v 1.9 4.6 -1.7
v 1.3 4.6 -1.8
v 1.5 4.6 -1.8
v 1.3 4.6 -1.9
v 1.9 4.6 -1.9
v 0 5 -0.6
v 0.1 5 -0.6
v 0 5 -1.3
v 0.1 5 -1.3
v 0 4.8 -1.3
v 0.1 4.8 -1.3
v 0 4.8 -1.8
v 0.1 4.8 -1.8
v 0.9 5 0
v 1.7 5 0
v 0.9 5 -0.1
v 1.7 5 -0.1
v 1.9 5 -0.6
v 2 5 -0.6
v 1.9 5 -1.5
v 2 5 -1.5
v 0.1 5.3 -1.4
v 0.4 5.3 -1.4
v 0.4 5.3 -1.6
v 0.6 5.3 -1.6
v 0.1 5.3 -1.9
v 0.6 5.3 -1.9
v 1.2 5.4 -0.1
v 1.9 5.4 -0.1
v 1.2 5.4 -0.5
v 1.4 5.4 -0.5
v 1.4 5.4 -0.7
v 1.9 5.4 -0.7
v 1.6 5.4 -1.6
v 1.9 5.4 -1.6
v 1.6 5.4 -1.9
v 1.9 5.4 -1.9
v 0.4 5.5 -1.4
v 0.6 5.5 -1.4
v 0.4 5.5 -1.6
v 0.6 5.5 -1.6
v 0.1 5.6 -0.1
v 0.6 5.6 -0.1
v 0.1 5.6 -0.5
v 0.6 5.6 -0.5
v 1.2 5.6 -0.5
v 1.4 5.6 -0.5
v 1.2 5.6 -0.7
v 1.4 5.6 -0.7
v 0 5.7 -0.6
v 0.1 5.7 -0.6
v 0 5.7 -1.3
v 0.1 5.7 -1.3
v 0.6 5.8 -0.1
v 1.2 5.8 -0.1
v 0.1 5.8 -0.5
v 0.6 5.8 -0.5
v 1.2 5.8 -0.7
v 1.9 5.8 -0.7
v 0.1 5.8 -1.4
v 0.6 5.8 -1.4
v 1.6 5.8 -1.6
v 1.9 5.8 -1.6
v 0.6 5.8 -1.9
v 1.6 5.8 -1.9

# faces
f 3/1/1 2/1/1 1/1/1
f 4/1/1 2/1/1 3/1/1
f 7/1/1 6/1/1 5/1/1
f 8/1/1 6/1/1 7/1/1
f 11/1/1 10/1/1 9/1/1
f 13/1/1 11/1/1 9/1/1
f 13/1/1 12/1/1 11/1/1
f 14/1/1 12/1/1 13/1/1
f 16/1/1 13/1/1 9/1/1
f 17/1/1 13/1/1 16/1/1
f 17/1/1 16/1/1 15/1/1
f 18/1/1 12/1/1 14/1/1
f 19/1/1 17/1/1 15/1/1
f 19/1/1 18/1/1 17/1/1
f 20/1/1 18/1/1 19/1/1
f 21/1/1 18/1/1 20/1/1
f 22/1/1 12/1/1 18/1/1
f 22/1/1 18/1/1 21/1/1
f 23/1/1 19/1/1 15/1/1
f 24/1/1 19/1/1 23/1/1
f 25/1/1 19/1/1 24/1/1
f 26/1/1 21/1/1 20/1/1
f 27/1/1 25/1/1 24/1/1
f 27/1/1 26/1/1 25/1/1
f 28/1/1 21/1/1 26/1/1
f 28/1/1 26/1/1 27/1/1
f 31/1/1 30/1/1 29/1/1
f 32/1/1 30/1/1 31/1/1
f 35/1/1 34/1/1 33/1/1
f 36/1/1 34/1/1 35/1/1
f 39/3/1 38/3/1 37/3/1
f 40/3/1 38/3/1 39/3/1
f 43/1/1 42/1/1 41/1/1
f 44/1/1 42/1/1 43/1/1
f 48/1/1 46/1/1 45/1/1
f 51/1/1 50/1/1 49/1/1
f 52/1/1 50/1/1 51/1/1
f 53/1/1 48/1/1 47/1/1
f 54/1/1 46/1/1 48/1/1
f 54/1/1 48/1/1 53/1/1
f 57/3/1 56/3/1 55/3/1
f 58/3/1 56/3/1 57/3/1
f 61/2/1 60/2/1 59/2/1
f 62/2/1 60/2/1 61/2/1
f 67/2/1 64/2/1 63/2/1
f 68/2/1 64/2/1 67/2/1
f 69/2/1 66/2/1 65/2/1
f 70/2/1 66/2/1 69/2/1
f 73/1/1 72/1/1 71/1/1
f 74/1/1 72/1/1 73/1/1
f 75/1/1 73/1/1 71/1/1
f 76/1/1 73/1/1 75/1/1
f 77/1/1 75/1/1 71/1/1
f 78/1/1 75/1/1 77/1/1
f 81/1/1 80/1/1 79/1/1
f 82/1/1 80/1/1 81/1/1
f 83/2/2 84/2/2 87/2/2
f 87/2/2 84/2/2 88/2/2
f 85/2/2 86/2/2 89/2/2
f 89/2/2 86/2/2 90/2/2
f 91/1/2 92/1/2 93/1/2
f 93/1/2 92/1/2 94/1/2
f 95/2/2 96/2/2 97/2/2
f 97/2/2 96/2/2 98/2/2
f 99/1/2 100/1/2 101/1/2
f 99/1/2 101/1/2 103/1/2
f 101/1/2 102/1/2 103/1/2
f 103/1/2 102/1/2 104/1/2
f 105/1/2 106/1/2 107/1/2
f 107/1/2 106/1/2 108/1/2
f 108/1/2 106/1/2 109/1/2
f 109/1/2 106/1/2 110/1/2
f 111/1/2 112/1/2 113/1/2
f 113/1/2 112/1/2 114/1/2
f 115/3/2 116/3/2 117/3/2
f 117/3/2 116/3/2 118/3/2
f 119/3/2 120/3/2 121/3/2
f 121/3/2 120/3/2 122/3/2
f 123/1/2 124/1/2 125/1/2
f 125/1/2 124/1/2 126/1/2
f 127/1/2 128/1/2 129/1/2
f 129/1/2 128/1/2 130/1/2
f 131/1/2 132/1/2 133/1/2
f 133/1/2 132/1/2 134/1/2
f 131/1/2 133/1/2 135/1/2
f 135/1/2 133/1/2 136/1/2
f 137/1/2 138/1/2 139/1/2
f 139/1/2 138/1/2 140/1/2
f 137/1/2 139/1/2 142/1/2
f 140/1/2 138/1/2 143/1/2
f 141/1/2 142/1/2 145/1/2
f 142/1/2 139/1/2 145/1/2
f 143/1/2 144/1/2 146/1/2
f 140/1/2 143/1/2 146/1/2
f 141/1/2 145/1/2 147/1/2
f 145/1/2 146/1/2 147/1/2
f 147/1/2 146/1/2 148/1/2
f 146/1/2 144/1/2 149/1/2
f 148/1/2 146/1/2 149/1/2
f 149/1/2 144/1/2 150/1/2
f 148/1/2 149/1/2 151/1/2
f 151/1/2 149/1/2 152/1/2
f 153/1/2 154/1/2 155/1/2
f 155/1/2 154/1/2 156/1/2
f 159/1/3 158/1/3 157/1/3
f 160/1/3 158/1/3 159/1/3
f 163/1/3 162/1/3 161/1/3
f 165/1/3 163/1/3 161/1/3
f 165/1/3 164/1/3 163/1/3
f 166/1/3 164/1/3 165/1/3
f 167/1/3 164/1/3 166/1/3
f 168/1/3 164/1/3 167/1/3
f 170/1/3 167/1/3 166/1/3
f 171/1/3 170/1/3 169/1/3
f 172/1/3 167/1/3 170/1/3
f 172/1/3 170/1/3 171/1/3
f 175/3/3 174/3/3 173/3/3
f 176/3/3 174/3/3 175/3/3
f 179/1/3 178/1/3 177/1/3
f 180/1/3 178/1/3 179/1/3
f 185/1/3 184/1/3 183/1/3
f 186/1/3 184/1/3 185/1/3
f 187/1/3 182/1/3 181/1/3
f 188/1/3 182/1/3 187/1/3
f 189/1/3 187/1/3 181/1/3
f 190/1/3 187/1/3 189/1/3
f 193/3/3 192/3/3 191/3/3
f 194/3/3 192/3/3 193/3/3
f 197/1/3 196/1/3 195/1/3
f 198/1/3 196/1/3 197/1/3
f 201/1/3 200/1/3 199/1/3
f 202/1/3 200/1/3 201/1/3
f 205/1/3 204/1/3 203/1/3
f 206/1/3 204/1/3 205/1/3
f 209/1/3 208/1/3 207/1/3
f 210/1/3 208/1/3 209/1/3
f 213/1/3 212/1/3 211/1/3
f 214/1/3 212/1/3 213/1/3
f 218/1/3 216/1/3 215/1/3
f 219/1/3 218/1/3 217/1/3
f 220/1/3 216/1/3 218/1/3
f 220/1/3 218/1/3 219/1/3
f 223/2/3 222/2/3 221/2/3
f 224/2/3 222/2/3 223/2/3
f 227/2/3 226/2/3 225/2/3
f 228/2/3 226/2/3 227/2/3
f 231/2/3 230/2/3 229/2/3
f 232/2/3 230/2/3 231/2/3
f 235/1/3 234/1/3 233/1/3
f 236/1/3 234/1/3 235/1/3
f 237/2/4 238/2/4 239/2/4
f 239/2/4 238/2/4 240/2/4
f 241/2/4 242/2/4 243/2/4
f 243/2/4 242/2/4 244/2/4
f 245/2/4 246/2/4 247/2/4
f 247/2/4 246/2/4 248/2/4
f 249/1/4 250/1/4 251/1/4
f 251/1/4 250/1/4 252/1/4
f 253/1/4 254/1/4 255/1/4
f 255/1/4 254/1/4 256/1/4
f 256/1/4 254/1/4 257/1/4
f 257/1/4 254/1/4 258/1/4
f 259/1/4 260/1/4 261/1/4
f 261/1/4 260/1/4 262/1/4
f 263/1/4 264/1/4 265/1/4
f 265/1/4 264/1/4 266/1/4
f 267/1/4 268/1/4 269/1/4
f 269/1/4 268/1/4 270/1/4
f 271/1/4 272/1/4 273/1/4
f 273/1/4 272/1/4 274/1/4
f 275/3/4 276/3/4 279/3/4
f 279/3/4 276/3/4 280/3/4
f 277/1/4 278/1/4 281/1/4
f 281/1/4 278/1/4 282/1/4
f 283/1/4 284/1/4 285/1/4
f 285/1/4 284/1/4 286/1/4
f 287/1/4 288/1/4 289/1/4
f 287/1/4 289/1/4 291/1/4
f 289/1/4 290/1/4 291/1/4
f 291/1/4 290/1/4 292/1/4
f 293/1/4 294/1/4 295/1/4
f 295/1/4 294/1/4 296/1/4
f 297/3/4 298/3/4 299/3/4
f 299/3/4 298/3/4 300/3/4
f 301/1/4 302/1/4 304/1/4
f 304/1/4 302/1/4 305/1/4
f 303/1/4 304/1/4 305/1/4
f 303/1/4 305/1/4 307/1/4
f 305/1/4 306/1/4 307/1/4
f 307/1/4 306/1/4 308/1/4
f 308/1/4 306/1/4 309/1/4
f 309/1/4 306/1/4 310/1/4
f 308/1/4 309/1/4 311/1/4
f 311/1/4 309/1/4 312/1/4
f 316/2/5 314/2/5 313/2/5
f 317/2/5 314/2/5 316/2/5
f 319/2/5 316/2/5 315/2/5
f 320/1/5 317/1/5 316/1/5
f 320/2/5 316/2/5 319/2/5
f 321/2/5 318/2/5 317/2/5
f 321/1/5 317/1/5 320/1/5
f 322/2/5 318/2/5 321/2/5
f 323/2/5 321/2/5 320/2/5
f 324/2/5 321/2/5 323/2/5
f 328/1/5 326/1/5 325/1/5
f 329/1/5 326/1/5 328/1/5
f 331/1/5 328/1/5 327/1/5
f 331/1/5 330/1/5 329/1/5
f 331/1/5 329/1/5 328/1/5
f 332/1/5 330/1/5 331/1/5
f 333/1/5 331/1/5 327/1/5
f 334/1/5 331/1/5 333/1/5
f 335/1/5 330/1/5 332/1/5
f 336/1/5 330/1/5 335/1/5
f 337/1/5 333/1/5 327/1/5
f 340/1/5 330/1/5 336/1/5
f 341/1/5 338/1/5 337/1/5
f 342/1/5 340/1/5 339/1/5
f 343/1/5 341/1/5 337/1/5
f 343/1/5 342/1/5 341/1/5
f 343/1/5 337/1/5 327/1/5
f 344/1/5 342/1/5 343/1/5
f 345/1/5 340/1/5 342/1/5
f 345/1/5 342/1/5 344/1/5
f 346/1/5 330/1/5 340/1/5
f 346/1/5 340/1/5 345/1/5
f 347/1/5 345/1/5 344/1/5
f 348/1/5 345/1/5 347/1/5
f 351/1/5 350/1/5 349/1/5
f 352/1/5 350/1/5 351/1/5
f 354/1/5 351/1/5 349/1/5
f 355/1/5 350/1/5 352/1/5
f 357/1/5 354/1/5 353/1/5
f 358/1/5 351/1/5 354/1/5
f 358/1/5 354/1/5 357/1/5
f 359/1/5 356/1/5 355/1/5
f 359/1/5 355/1/5 352/1/5
f 360/1/5 356/1/5 359/1/5
f 361/1/5 357/1/5 353/1/5
f 364/1/5 356/1/5 360/1/5
f 365/1/5 362/1/5 361/1/5
f 365/1/5 361/1/5 353/1/5
f 366/1/5 362/1/5 365/1/5
f 367/1/5 362/1/5 366/1/5
f 368/1/5 364/1/5 363/1/5
f 369/1/5 367/1/5 366/1/5
f 369/1/5 368/1/5 367/1/5
f 369/1/5 364/1/5 368/1/5
f 370/1/5 356/1/5 364/1/5
f 370/1/5 364/1/5 369/1/5
f 371/1/5 369/1/5 366/1/5
f 372/1/5 369/1/5 371/1/5
f 375/3/5 374/3/5 373/3/5
f 376/3/5 374/3/5 375/3/5
f 379/1/5 378/1/5 377/1/5
f 380/1/5 378/1/5 379/1/5
f 383/1/5 382/1/5 381/1/5
f 384/1/5 382/1/5 383/1/5
f 387/1/5 386/1/5 385/1/5
f 388/1/5 386/1/5 387/1/5
f 393/1/5 390/1/5 389/1/5
f 394/1/5 390/1/5 393/1/5
f 395/3/5 392/3/5 391/3/5
f 396/3/5 392/3/5 395/3/5
f 399/1/5 398/1/5 397/1/5
f 400/1/5 398/1/5 399/1/5
f 401/1/5 399/1/5 397/1/5
f 402/1/5 399/1/5 401/1/5
f 406/1/5 404/1/5 403/1/5
f 407/1/5 406/1/5 405/1/5
f 408/1/5 404/1/5 406/1/5
f 408/1/5 406/1/5 407/1/5
f 411/1/5 410/1/5 409/1/5
f 412/1/5 410/1/5 411/1/5
f 413/1/6 414/1/6 415/1/6
f 415/1/6 414/1/6 416/1/6
f 417/1/6 418/1/6 419/1/6
f 419/1/6 418/1/6 420/1/6
f 421/1/6 422/1/6 423/1/6
f 423/1/6 422/1/6 424/1/6
f 425/1/6 426/1/6 427/1/6
f 425/1/6 427/1/6 429/1/6
f 427/1/6 428/1/6 429/1/6
f 429/1/6 428/1/6 430/1/6
f 431/1/6 432/1/6 433/1/6
f 433/1/6 432/1/6 434/1/6
f 434/1/6 432/1/6 435/1/6
f 435/1/6 432/1/6 436/1/6
f 437/1/6 438/1/6 439/1/6
f 439/1/6 438/1/6 440/1/6
f 441/3/6 442/3/6 443/3/6
f 443/3/6 442/3/6 444/3/6
f 445/1/6 446/1/6 447/1/6
f 447/1/6 446/1/6 448/1/6
f 449/3/6 450/3/6 451/3/6
f 451/3/6 450/3/6 452/3/6
f 453/1/6 454/1/6 455/1/6
f 455/1/6 454/1/6 456/1/6
f 457/1/6 458/1/6 460/1/6
f 460/1/6 458/1/6 461/1/6
f 459/1/6 460/1/6 461/1/6
f 459/1/6 461/1/6 463/1/6
f 461/1/6 462/1/6 463/1/6
f 463/1/6 462/1/6 464/1/6
f 464/1/6 462/1/6 465/1/6
f 465/1/6 462/1/6 466/1/6
f 464/1/6 465/1/6 467/1/6
f 467/1/6 465/1/6 468/1/6
